{"glyphs":{"0":{"ha":731,"x_min":19,"x_max":711,"o":"m 143 -1 q 19 86 40 -1 q 21 435 21 268 q 19 767 21 601 q 61 844 31 821 q 143 868 92 868 l 588 868 q 669 844 639 868 q 711 767 700 821 q 710 435 710 601 q 711 86 710 268 q 588 -1 690 -1 l 143 -1 m 268 189 l 463 189 l 463 681 l 268 681 l 268 189 z "},"1":{"ha":476,"x_min":18,"x_max":458,"o":"m 458 0 l 224 0 l 222 681 l 18 683 l 79 869 l 458 867 l 458 0 z "},"2":{"ha":733,"x_min":19,"x_max":715,"o":"m 21 375 l 21 456 q 63 533 32 510 q 144 557 93 557 l 461 556 l 461 681 l 358 681 l 358 682 l 19 682 l 19 867 l 586 868 q 668 844 638 868 q 710 767 699 821 l 710 556 l 711 556 l 711 521 q 711 514 715 524 l 711 375 l 589 375 q 556 375 567 364 l 254 375 l 254 172 l 256 172 l 256 171 l 710 171 l 710 -1 l 143 -1 q 19 86 40 -1 l 19 375 l 21 375 z "},"3":{"ha":792,"x_min":18,"x_max":772,"o":"m 317 682 l 68 682 l 68 863 q 56 864 58 863 l 68 864 l 68 863 l 317 863 l 317 865 l 649 867 q 731 843 700 867 q 772 765 761 819 l 772 519 q 742 473 761 488 q 703 447 724 458 l 703 417 q 738 406 724 417 q 772 374 751 396 l 772 85 q 649 -3 751 -3 l 68 -3 l 68 171 l 524 171 l 524 371 l 317 371 l 317 519 l 524 519 l 524 676 l 317 676 l 317 682 m 68 -4 l 18 -4 q 24 -3 21 -4 q 33 -3 28 -3 l 68 -3 l 68 -4 z "},"4":{"ha":724,"x_min":17,"x_max":704,"o":"m 17 267 l 17 867 l 251 867 l 251 449 l 467 447 l 467 868 l 703 868 l 703 867 l 704 867 l 703 863 l 703 383 l 701 383 l 701 189 l 704 189 l 701 181 l 701 0 l 467 0 l 467 267 l 17 267 z "},"5":{"ha":732,"x_min":19,"x_max":713,"o":"m 19 185 l 463 186 l 464 344 l 143 344 q 19 432 40 344 q 20 479 19 454 q 21 526 21 504 l 19 526 l 19 767 q 61 844 31 821 q 143 868 92 868 l 710 868 l 710 774 q 711 767 710 768 q 710 724 711 746 q 710 682 710 703 l 268 681 l 268 526 l 588 528 q 669 504 639 528 q 711 426 700 481 q 710 420 711 424 q 710 414 710 417 l 713 414 l 713 90 q 589 3 692 3 l 410 0 l 410 -1 l 19 -7 l 19 185 z "},"6":{"ha":736,"x_min":19,"x_max":717,"o":"m 143 0 q 61 24 92 0 q 19 101 31 47 l 19 776 q 143 864 40 864 l 322 867 l 322 868 l 717 868 l 650 678 l 269 681 l 268 522 l 589 522 q 713 435 692 522 q 712 388 713 413 q 711 340 711 363 l 713 340 l 713 100 q 671 22 701 46 q 589 -1 640 -1 l 511 -1 l 513 -4 l 143 0 m 267 185 l 464 186 l 464 340 l 267 339 l 267 185 z "},"7":{"ha":724,"x_min":17,"x_max":706,"o":"m 393 681 l 89 682 l 17 867 l 706 867 l 350 0 l 115 0 l 393 681 z "},"8":{"ha":743,"x_min":19,"x_max":724,"o":"m 143 -4 q 19 83 40 -4 l 19 372 q 54 405 40 394 q 89 415 68 415 l 89 446 q 49 472 68 457 q 19 518 31 486 l 19 764 q 61 842 31 818 q 143 865 92 865 l 268 864 l 268 867 l 600 868 q 682 844 651 868 q 724 767 713 821 l 724 521 q 694 474 713 489 q 654 449 675 460 l 654 418 q 689 408 675 418 q 724 375 703 397 l 724 86 q 600 -1 703 -1 l 143 -4 m 268 172 l 475 172 l 475 372 l 268 372 l 268 172 m 268 521 l 475 521 l 475 678 l 268 678 l 268 521 z "},"9":{"ha":736,"x_min":19,"x_max":717,"o":"m 593 864 q 675 840 644 864 q 717 763 706 817 l 717 88 q 593 0 696 0 l 414 -3 l 414 -4 l 19 -4 l 86 186 l 467 183 l 468 342 l 147 342 q 24 429 44 342 q 24 476 24 451 q 25 524 25 501 l 24 524 l 24 764 q 65 842 35 818 q 147 865 96 865 l 225 865 l 224 868 l 593 864 m 469 679 l 272 678 l 272 524 l 469 525 l 469 679 z "}," ":{"ha":694,"x_min":0,"x_max":0,"o":""},"F":{"ha":738,"x_min":28,"x_max":715,"o":"m 28 867 l 715 867 l 647 681 l 264 681 l 264 522 l 647 522 l 647 340 l 264 340 l 263 0 l 28 0 l 28 867 z "},"D":{"ha":743,"x_min":26,"x_max":717,"o":"m 26 -1 l 26 867 l 593 868 q 675 844 644 868 q 717 767 706 821 q 715 435 715 601 q 717 86 715 268 q 593 -1 696 -1 l 26 -1 m 468 189 l 468 681 l 261 681 l 260 189 l 468 189 z "},"G":{"ha":740,"x_min":26,"x_max":714,"o":"m 263 303 l 263 188 l 476 188 l 476 340 l 344 340 l 344 522 l 711 522 l 711 189 l 714 189 l 711 181 l 711 0 l 26 0 l 26 867 l 714 867 l 646 681 l 263 681 l 263 565 l 261 565 l 261 303 l 263 303 z "},"H":{"ha":740,"x_min":26,"x_max":714,"o":"m 26 0 l 26 867 l 261 867 l 261 524 l 476 522 l 476 868 l 713 868 l 713 867 l 714 867 l 713 863 l 713 383 l 711 383 l 711 189 l 714 189 l 711 181 l 711 0 l 476 0 l 476 342 l 261 342 l 261 0 l 26 0 z "},"I":{"ha":288,"x_min":26,"x_max":261,"o":"m 260 0 l 26 0 l 26 867 l 261 867 l 260 0 z "},"J":{"ha":528,"x_min":21,"x_max":503,"o":"m 503 0 l 82 0 l 21 186 l 267 186 l 268 867 l 503 867 l 503 0 z "},"K":{"ha":776,"x_min":25,"x_max":753,"o":"m 394 422 l 753 0 l 476 0 l 260 235 l 260 233 l 260 0 l 26 0 l 26 276 l 25 278 l 26 279 l 26 867 l 261 867 l 260 619 l 431 868 l 711 868 l 704 860 l 708 860 l 394 422 z "},"L":{"ha":729,"x_min":24,"x_max":711,"o":"m 260 186 l 643 186 l 711 0 l 24 0 l 24 867 l 258 867 l 260 186 z "},"M":{"ha":1186,"x_min":24,"x_max":1163,"o":"m 710 0 l 475 0 l 475 4 l 471 4 l 471 685 l 261 685 l 258 0 l 24 0 l 24 867 l 1158 868 l 1161 871 l 1163 871 l 1161 867 l 1158 0 l 925 0 l 926 651 l 925 651 l 925 685 l 711 685 l 710 0 z "},"N":{"ha":735,"x_min":24,"x_max":711,"o":"m 710 0 l 475 0 l 475 4 l 471 4 l 471 685 l 261 685 l 258 0 l 24 0 l 24 867 l 711 867 l 710 0 z "},"O":{"ha":739,"x_min":24,"x_max":715,"o":"m 147 -1 q 24 86 44 -1 q 25 435 25 268 q 24 767 25 601 q 65 844 35 821 q 147 868 96 868 l 592 868 q 674 844 643 868 q 715 767 704 821 q 714 435 714 601 q 715 86 714 268 q 592 -1 694 -1 l 147 -1 m 272 189 l 467 189 l 467 681 l 272 681 l 272 189 z "},"P":{"ha":732,"x_min":22,"x_max":713,"o":"m 258 172 l 258 -1 l 22 -1 l 22 867 l 589 868 q 671 844 640 868 q 713 767 701 821 q 713 626 713 678 q 713 544 713 574 q 713 502 713 515 q 713 479 713 489 q 680 410 703 433 q 619 379 657 386 l 619 375 l 257 375 l 257 172 l 258 172 m 464 521 l 464 681 l 257 681 l 257 521 l 464 521 z "},"Q":{"ha":735,"x_min":21,"x_max":713,"o":"m 144 -1 q 21 86 42 -1 l 21 517 l 22 517 q 22 642 22 579 q 21 767 21 704 q 63 844 32 821 q 144 868 93 868 l 589 868 q 671 844 640 868 q 713 767 701 821 q 711 435 711 601 q 713 86 711 268 q 653 10 699 31 l 654 -168 l 468 -101 l 467 -1 l 144 -1 m 464 189 l 464 681 l 269 681 l 269 189 l 464 189 z "},"R":{"ha":736,"x_min":22,"x_max":714,"o":"m 260 -1 l 24 -1 l 24 417 l 22 418 l 24 419 l 24 867 l 590 868 q 672 844 642 868 q 714 767 703 821 q 714 626 714 678 q 714 544 714 574 q 714 502 714 515 q 714 479 714 489 q 681 410 704 433 q 621 379 658 386 l 621 375 l 532 375 l 713 -4 l 469 -4 l 293 372 l 293 521 l 465 521 l 465 682 l 251 682 l 260 -1 z "},"S":{"ha":738,"x_min":22,"x_max":715,"o":"m 90 186 l 465 186 l 467 344 l 146 344 q 22 432 43 344 q 23 479 22 454 q 24 526 24 504 l 22 526 l 22 767 q 64 844 33 821 q 146 868 94 868 l 713 868 q 675 762 692 807 q 646 681 658 717 l 646 682 l 507 682 l 507 681 l 271 681 l 271 526 l 590 528 q 672 504 642 528 q 714 426 703 481 q 713 420 714 424 q 713 414 713 417 l 715 414 l 715 90 q 592 3 694 3 l 413 0 l 413 -1 l 22 -4 l 90 186 z "},"T":{"ha":724,"x_min":18,"x_max":706,"o":"m 18 868 l 706 868 l 706 686 l 478 686 l 476 0 l 243 0 l 243 686 l 18 686 l 18 868 z "},"U":{"ha":729,"x_min":21,"x_max":708,"o":"m 708 0 l 21 0 l 21 867 l 256 867 l 258 182 l 468 182 l 468 863 l 472 863 l 472 867 l 707 867 l 708 0 z "},"V":{"ha":722,"x_min":18,"x_max":704,"o":"m 474 865 l 704 865 l 479 -3 l 475 -3 l 476 -4 l 246 -4 l 246 -3 l 243 -3 l 18 865 l 249 865 l 361 435 l 474 865 m 246 -3 l 247 -3 l 246 -3 z "},"W":{"ha":1178,"x_min":19,"x_max":1158,"o":"m 707 186 l 921 186 l 921 219 l 922 219 l 921 871 l 1154 871 l 1157 4 l 1158 0 l 1157 0 l 1154 3 l 19 4 l 19 871 l 254 871 l 257 186 l 467 186 l 467 867 l 471 867 l 471 871 l 706 871 l 707 186 z "},"X":{"ha":738,"x_min":19,"x_max":718,"o":"m 476 865 l 711 865 l 486 440 l 718 3 l 483 3 l 368 218 l 254 3 l 19 3 l 251 440 l 26 865 l 261 865 l 368 661 l 476 865 z "},"Y":{"ha":718,"x_min":17,"x_max":701,"o":"m 242 0 l 242 440 l 17 865 l 251 865 l 358 661 l 467 865 l 701 865 l 476 440 l 475 0 l 242 0 z "},"Z":{"ha":733,"x_min":19,"x_max":714,"o":"m 25 871 l 479 871 l 481 874 l 714 874 l 713 871 l 347 186 l 640 186 l 708 0 l 19 0 l 21 3 l 381 685 l 93 685 l 25 871 z "},"a":{"ha":903,"x_min":17,"x_max":885,"o":"m 17 1 l 333 874 l 586 874 l 885 1 l 396 1 l 396 186 l 586 186 l 460 578 l 253 1 l 17 1 z "},"b":{"ha":729,"x_min":19,"x_max":710,"o":"m 19 -1 l 19 867 l 586 868 q 668 844 638 868 q 710 767 699 821 l 710 521 q 680 474 699 489 q 640 449 661 460 l 640 418 q 675 408 661 418 q 710 375 689 397 l 710 86 q 586 -1 689 -1 l 19 -1 m 461 521 l 461 681 l 254 681 l 254 521 l 461 521 m 461 172 l 461 375 l 254 375 l 254 172 l 461 172 z "},"c":{"ha":726,"x_min":19,"x_max":707,"o":"m 707 867 l 639 681 l 256 681 l 256 188 l 707 189 l 640 0 l 86 0 q 49 35 67 19 q 19 81 31 50 l 19 799 q 49 842 31 829 q 86 867 67 856 l 707 867 z "},"d":{"ha":729,"x_min":19,"x_max":710,"o":"m 19 -1 l 19 867 l 586 868 q 668 844 638 868 q 710 767 699 821 q 708 435 708 601 q 710 86 708 268 q 586 -1 689 -1 l 19 -1 m 461 189 l 461 681 l 254 681 l 253 189 l 461 189 z "},"e":{"ha":726,"x_min":19,"x_max":707,"o":"m 19 867 l 707 867 l 639 681 l 256 681 l 256 522 l 639 522 l 639 340 l 256 340 l 256 188 l 707 189 l 640 0 l 19 0 l 19 867 z "},"f":{"ha":722,"x_min":19,"x_max":707,"o":"m 19 867 l 707 867 l 707 679 l 256 681 l 256 522 l 639 522 l 639 340 l 256 340 l 257 -268 l 21 -353 l 19 0 l 19 867 z "},"g":{"ha":726,"x_min":19,"x_max":707,"o":"m 256 303 l 256 188 l 469 188 l 469 340 l 338 340 l 338 522 l 704 522 l 704 189 l 707 189 l 704 181 l 704 0 l 19 0 l 19 867 l 707 867 l 639 681 l 256 681 l 256 565 l 254 565 l 254 303 l 256 303 z "},"h":{"ha":726,"x_min":19,"x_max":707,"o":"m 19 0 l 19 867 l 254 867 l 254 524 l 469 522 l 469 868 l 706 868 l 706 867 l 707 867 l 706 863 l 706 383 l 704 383 l 704 189 l 707 189 l 704 181 l 704 0 l 469 0 l 469 342 l 254 342 l 254 0 l 19 0 z "},"i":{"ha":274,"x_min":19,"x_max":254,"o":"m 253 0 l 19 0 l 19 867 l 254 867 l 253 0 z "},"j":{"ha":518,"x_min":17,"x_max":499,"o":"m 499 0 l 78 0 l 17 186 l 263 186 l 264 867 l 499 867 l 499 0 z "},"k":{"ha":765,"x_min":19,"x_max":747,"o":"m 389 422 l 747 0 l 471 0 l 254 235 l 254 233 l 254 0 l 21 0 l 21 276 l 19 278 l 21 279 l 21 867 l 256 867 l 254 619 l 425 868 l 706 868 l 699 860 l 703 860 l 389 422 z "},"l":{"ha":722,"x_min":19,"x_max":707,"o":"m 256 186 l 639 186 l 707 0 l 19 0 l 19 867 l 254 867 l 256 186 z "},"m":{"ha":1178,"x_min":19,"x_max":1158,"o":"m 706 0 l 471 0 l 471 4 l 467 4 l 467 685 l 257 685 l 254 0 l 19 0 l 19 867 l 1154 868 l 1157 871 l 1158 871 l 1157 867 l 1154 0 l 921 0 l 922 651 l 921 651 l 921 685 l 707 685 l 706 0 z "},"n":{"ha":726,"x_min":19,"x_max":707,"o":"m 706 0 l 471 0 l 471 4 l 467 4 l 467 685 l 257 685 l 254 0 l 19 0 l 19 867 l 707 867 l 706 0 z "},"o":{"ha":731,"x_min":19,"x_max":711,"o":"m 143 -1 q 19 86 40 -1 q 21 435 21 268 q 19 767 21 601 q 61 844 31 821 q 143 868 92 868 l 588 868 q 669 844 639 868 q 711 767 700 821 q 710 435 710 601 q 711 86 710 268 q 588 -1 690 -1 l 143 -1 m 268 189 l 463 189 l 463 681 l 268 681 l 268 189 z "},"p":{"ha":726,"x_min":19,"x_max":710,"o":"m 256 172 l 256 -1 l 19 -1 l 19 867 l 586 868 q 668 844 638 868 q 710 767 699 821 q 710 626 710 678 q 710 544 710 574 q 710 502 710 515 q 710 479 710 489 q 677 410 700 433 q 617 379 654 386 l 617 375 l 254 375 l 254 172 l 256 172 m 461 521 l 461 681 l 254 681 l 254 521 l 461 521 z "},"q":{"ha":729,"x_min":18,"x_max":710,"o":"m 142 -1 q 18 86 39 -1 l 18 517 l 19 517 q 19 642 19 579 q 18 767 18 704 q 60 844 29 821 q 142 868 90 868 l 586 868 q 668 844 638 868 q 710 767 699 821 q 708 435 708 601 q 710 86 708 268 q 650 10 696 31 l 651 -168 l 465 -101 l 464 -1 l 142 -1 m 461 189 l 461 681 l 267 681 l 267 189 l 461 189 z "},"r":{"ha":731,"x_min":19,"x_max":711,"o":"m 257 -1 l 21 -1 l 21 417 l 19 418 l 21 419 l 21 867 l 588 868 q 669 844 639 868 q 711 767 700 821 q 711 626 711 678 q 711 544 711 574 q 711 502 711 515 q 711 479 711 489 q 678 410 701 433 q 618 379 656 386 l 618 375 l 529 375 l 710 -4 l 467 -4 l 290 372 l 290 521 l 463 521 l 463 682 l 249 682 l 257 -1 z "},"s":{"ha":732,"x_min":19,"x_max":713,"o":"m 19 185 l 463 186 l 464 344 l 143 344 q 19 432 40 344 q 20 479 19 454 q 21 526 21 504 l 19 526 l 19 767 q 61 844 31 821 q 143 868 92 868 l 710 868 q 669 756 686 801 q 642 682 653 711 l 572 682 l 268 681 l 268 526 l 588 528 q 669 504 639 528 q 711 426 700 481 q 710 420 711 424 q 710 414 710 417 l 713 414 l 713 90 q 589 3 692 3 l 410 0 l 410 -1 l 88 -1 l 19 185 z "},"t":{"ha":626,"x_min":17,"x_max":608,"o":"m 478 110 l 479 -272 l 243 -357 l 242 -4 l 242 686 l 17 686 l 17 868 l 608 864 l 608 686 l 476 686 l 476 110 l 478 110 z "},"u":{"ha":726,"x_min":19,"x_max":707,"o":"m 707 0 l 19 0 l 19 867 l 254 867 l 257 182 l 467 182 l 467 863 l 471 863 l 471 867 l 706 867 l 707 0 z "},"v":{"ha":718,"x_min":18,"x_max":704,"o":"m 474 865 l 704 865 l 479 0 l 243 0 l 18 865 l 249 865 l 361 435 l 474 865 z "},"w":{"ha":1178,"x_min":19,"x_max":1158,"o":"m 707 186 l 921 186 l 921 219 l 922 219 l 921 871 l 1154 871 l 1157 4 l 1158 0 l 1157 0 l 1154 3 l 19 4 l 19 871 l 254 871 l 257 186 l 467 186 l 467 867 l 471 867 l 471 871 l 706 871 l 707 186 z "},"x":{"ha":738,"x_min":19,"x_max":718,"o":"m 476 865 l 711 865 l 486 440 l 718 3 l 483 3 l 368 218 l 254 3 l 19 3 l 251 440 l 26 865 l 261 865 l 368 661 l 476 865 z "},"y":{"ha":718,"x_min":17,"x_max":701,"o":"m 242 0 l 242 440 l 17 865 l 251 865 l 358 661 l 467 865 l 701 865 l 476 440 l 475 0 l 242 0 z "},"z":{"ha":733,"x_min":19,"x_max":714,"o":"m 25 871 l 479 871 l 481 874 l 714 874 l 713 871 l 347 186 l 640 186 l 708 0 l 19 0 l 21 3 l 381 685 l 93 685 l 25 871 z "},"!":{"ha":272,"x_min":19,"x_max":254,"o":"m 253 292 l 19 292 l 19 867 l 254 867 l 253 292 m 19 0 l 19 175 l 253 175 l 253 0 l 19 0 z "},".":{"ha":272,"x_min":19,"x_max":253,"o":"m 19 0 l 19 175 l 253 175 l 253 0 l 19 0 z "},"/":{"ha":672,"x_min":15,"x_max":657,"o":"m 249 0 l 15 1 l 422 860 l 657 857 l 249 0 z "},",":{"ha":274,"x_min":19,"x_max":256,"o":"m 22 175 l 256 175 l 256 -36 l 19 -121 l 22 175 z "},"\"":{"ha":622,"x_min":19,"x_max":603,"o":"m 253 524 l 19 524 l 19 867 l 254 867 l 253 524 m 601 524 l 368 524 l 368 867 l 603 867 l 601 524 z "},"'":{"ha":274,"x_min":19,"x_max":254,"o":"m 253 524 l 19 524 l 19 867 l 254 867 l 253 524 z "},"#":{"ha":1236,"x_min":17,"x_max":1219,"o":"m 117 371 l 278 369 l 338 492 l 169 492 l 268 703 l 436 703 l 510 860 l 744 857 l 669 703 l 806 703 l 882 860 l 1117 857 l 1042 703 l 1219 703 l 1121 492 l 943 492 l 883 367 l 1067 367 l 967 156 l 782 156 l 708 0 l 475 1 l 549 157 l 411 157 l 336 0 l 103 1 l 178 157 l 17 158 l 117 371 m 649 368 l 708 492 l 572 492 l 511 369 l 649 368 z "},"|":{"ha":274,"x_min":19,"x_max":254,"o":"m 253 -231 l 19 -231 l 19 867 l 254 867 l 253 -231 z "},"$":{"ha":738,"x_min":22,"x_max":715,"o":"m 504 526 l 590 528 q 672 504 642 528 q 714 426 703 481 q 713 420 714 424 q 713 414 713 417 l 715 414 l 715 90 q 592 3 694 3 l 503 1 l 503 -124 l 269 -124 l 269 -1 l 90 -1 l 22 185 l 269 185 l 269 186 l 467 186 l 467 344 l 146 344 q 22 432 43 344 q 23 479 22 454 q 24 526 24 504 l 22 526 l 22 767 q 64 844 33 821 q 146 868 94 868 l 269 868 l 269 974 l 504 974 l 504 868 l 713 868 l 713 774 q 714 767 713 768 q 713 724 714 746 q 713 682 713 703 l 504 681 l 504 682 l 269 682 l 269 526 l 504 526 z "},"&":{"ha":899,"x_min":19,"x_max":881,"o":"m 724 83 l 722 83 q 716 65 719 74 q 708 50 713 57 l 772 -83 l 536 -83 l 497 -1 l 499 -1 q 497 0 499 0 l 496 0 q 497 -1 496 0 l 143 -4 q 19 83 40 -4 l 19 372 q 54 405 40 394 q 89 415 68 415 l 89 446 q 49 472 68 457 q 19 518 31 486 l 19 764 q 61 842 31 818 q 143 865 92 865 l 268 864 l 268 867 l 600 868 q 682 844 651 868 q 724 767 713 821 l 724 521 q 694 474 713 489 q 654 449 675 460 l 557 371 l 590 300 l 646 417 l 881 414 l 724 83 m 268 521 l 475 521 l 475 678 l 268 678 l 268 521 m 319 372 l 268 372 l 268 172 l 414 172 l 319 372 z "},"(":{"ha":504,"x_min":49,"x_max":451,"o":"m 451 868 q 310 610 361 742 q 254 340 258 478 q 297 59 250 203 q 451 -235 344 -85 l 213 -235 q 99 31 140 -103 q 53 303 57 165 q 86 581 49 440 q 208 868 124 722 l 451 868 z "},")":{"ha":504,"x_min":51,"x_max":454,"o":"m 294 868 q 417 581 379 722 q 450 303 454 440 q 404 31 446 165 q 290 -235 363 -103 l 51 -235 q 205 59 157 -85 q 249 340 253 203 q 193 610 244 478 q 51 868 142 742 l 294 868 z "},"+":{"ha":556,"x_min":18,"x_max":538,"o":"m 394 317 l 394 175 l 161 175 l 161 317 l 18 318 l 18 551 l 161 551 l 161 694 l 396 694 l 396 551 l 538 551 l 538 317 l 394 317 z "},"-":{"ha":385,"x_min":19,"x_max":365,"o":"m 19 178 l 19 413 l 365 413 l 365 178 l 19 178 z "},"*":{"ha":550,"x_min":18,"x_max":532,"o":"m 158 806 l 158 867 l 393 867 l 393 799 l 457 821 l 504 675 l 532 665 l 519 631 l 531 597 l 503 588 l 450 446 l 392 467 l 392 406 l 158 406 l 158 472 l 93 451 l 44 597 l 18 607 l 31 640 l 19 674 l 46 682 l 100 828 l 158 806 z "},"[":{"ha":503,"x_min":25,"x_max":483,"o":"m 415 681 l 264 681 l 263 -44 l 414 -44 l 482 -231 l 25 -231 l 29 867 l 483 867 l 415 681 z "},"]":{"ha":496,"x_min":18,"x_max":476,"o":"m 18 867 l 472 867 l 476 -231 l 19 -231 l 88 -44 l 239 -44 l 238 681 l 86 681 l 18 867 z "},"\\":{"ha":672,"x_min":15,"x_max":657,"o":"m 15 857 l 250 860 l 657 1 l 424 0 l 15 857 z "},"?":{"ha":740,"x_min":18,"x_max":722,"o":"m 18 519 l 18 764 q 60 842 29 818 q 142 865 90 865 l 267 864 l 267 867 l 599 868 q 681 844 650 868 q 722 767 711 821 l 722 521 q 692 474 711 489 q 653 449 674 460 q 656 449 654 449 q 658 450 657 450 q 628 437 644 443 q 592 424 613 431 q 542 407 571 417 q 474 385 514 397 l 474 292 l 242 292 l 242 519 l 474 521 l 474 678 l 242 678 l 242 596 l 18 519 m 661 451 q 660 451 660 451 q 658 450 660 450 q 661 451 660 451 m 242 0 l 242 175 l 475 175 l 475 0 l 242 0 z "},":":{"ha":269,"x_min":18,"x_max":251,"o":"m 18 0 l 18 175 l 251 175 l 251 0 l 18 0 m 18 463 l 18 636 l 251 636 l 251 463 l 18 463 z "},";":{"ha":275,"x_min":18,"x_max":256,"o":"m 18 463 l 18 636 l 251 636 l 251 463 l 18 463 m 22 175 l 256 175 l 256 -36 l 19 -121 l 22 175 z "},"=":{"ha":614,"x_min":19,"x_max":594,"o":"m 19 636 l 594 638 l 594 403 l 19 403 l 19 636 m 19 347 l 594 349 l 594 114 l 19 114 l 19 347 z "},"<":{"ha":433,"x_min":17,"x_max":415,"o":"m 181 68 l 17 413 l 181 757 l 415 754 l 253 413 l 415 71 l 181 68 z "},">":{"ha":433,"x_min":17,"x_max":415,"o":"m 17 71 l 179 413 l 17 754 l 251 757 l 415 413 l 251 68 l 17 71 z "},"ƒ":{"ha":722,"x_min":19,"x_max":707,"o":"m 19 867 l 707 867 l 639 681 l 256 681 l 256 522 l 639 522 l 639 340 l 256 340 l 257 -268 l 21 -353 l 19 0 l 19 867 z "},"^":{"ha":725,"x_min":18,"x_max":707,"o":"m 704 474 l 363 638 l 21 476 l 18 711 l 363 874 l 707 708 l 704 474 z "},"«":{"ha":831,"x_min":22,"x_max":815,"o":"m 186 0 l 22 344 l 186 689 l 421 686 l 258 344 l 421 3 l 186 0 m 581 0 l 417 344 l 581 689 l 815 686 l 653 344 l 815 3 l 581 0 z "},"»":{"ha":831,"x_min":19,"x_max":813,"o":"m 414 3 l 576 344 l 414 686 l 649 689 l 813 344 l 649 0 l 414 3 m 19 3 l 182 344 l 19 686 l 254 689 l 418 344 l 254 0 l 19 3 z "},"_":{"ha":906,"x_min":19,"x_max":886,"o":"m 19 -404 l 19 -171 l 886 -168 l 886 -403 l 19 -404 z "},"…":{"ha":817,"x_min":19,"x_max":797,"o":"m 19 0 l 19 175 l 253 175 l 253 0 l 19 0 m 292 0 l 292 175 l 525 175 l 525 0 l 292 0 m 564 0 l 564 175 l 797 175 l 797 0 l 564 0 z "},"‚":{"ha":274,"x_min":19,"x_max":256,"o":"m 22 175 l 256 175 l 256 -36 l 19 -121 l 22 175 z "},"„":{"ha":601,"x_min":19,"x_max":582,"o":"m 22 175 l 256 175 l 256 -36 l 19 -121 l 22 175 m 349 175 l 582 175 l 582 -36 l 346 -121 l 349 175 z "},"‘":{"ha":274,"x_min":19,"x_max":256,"o":"m 19 864 l 256 779 l 256 568 l 22 568 l 19 864 z "},"’":{"ha":274,"x_min":18,"x_max":254,"o":"m 254 568 l 18 653 l 18 864 l 251 864 l 254 568 z "},"“":{"ha":601,"x_min":19,"x_max":582,"o":"m 19 872 l 256 788 l 256 576 l 22 576 l 19 872 m 346 872 l 582 788 l 582 576 l 349 576 l 346 872 z "},"”":{"ha":601,"x_min":19,"x_max":582,"o":"m 22 872 l 256 872 l 256 661 l 19 576 l 22 872 m 349 872 l 582 872 l 582 661 l 346 576 l 349 872 z "},"•":{"ha":336,"x_min":19,"x_max":317,"o":"m 19 296 l 19 576 l 317 576 l 317 296 l 19 296 z "},"—":{"ha":790,"x_min":19,"x_max":771,"o":"m 19 179 l 19 413 l 771 413 l 771 182 l 19 179 z "},"–":{"ha":557,"x_min":19,"x_max":538,"o":"m 19 182 l 19 415 l 538 421 l 538 182 l 19 182 z "},"`":{"ha":353,"x_min":18,"x_max":335,"o":"m 253 928 l 335 754 l 99 754 l 18 925 l 253 928 z "},"¨":{"ha":544,"x_min":19,"x_max":525,"o":"m 19 706 l 19 881 l 253 881 l 253 706 l 19 706 m 292 706 l 292 881 l 525 881 l 525 706 l 292 706 z "},"‰":{"ha":1383,"x_min":18,"x_max":1367,"o":"m 399 0 l 165 1 l 572 860 l 807 857 l 399 0 m 78 446 q 18 488 28 446 l 18 824 q 78 872 28 872 l 297 872 q 358 824 349 872 q 358 488 357 664 q 297 446 347 446 l 78 446 m 140 539 l 235 539 l 235 781 l 140 781 l 140 539 m 685 -4 q 625 38 635 -4 l 625 374 q 685 422 635 422 l 904 422 q 965 374 956 422 q 965 38 964 214 q 904 -4 954 -4 l 685 -4 m 747 89 l 842 89 l 842 331 l 747 331 l 747 89 m 1086 -1 q 1026 40 1036 -1 l 1026 376 q 1086 425 1036 425 l 1306 425 q 1367 376 1357 425 q 1367 40 1365 217 q 1306 -1 1356 -1 l 1086 -1 m 1149 92 l 1243 92 l 1243 333 l 1149 333 l 1149 92 z "},"‹":{"ha":433,"x_min":17,"x_max":415,"o":"m 181 0 l 17 344 l 181 689 l 415 686 l 253 344 l 415 3 l 181 0 z "},"›":{"ha":433,"x_min":18,"x_max":417,"o":"m 18 3 l 181 344 l 18 686 l 253 689 l 417 344 l 253 0 l 18 3 z "},"ˆ":{"ha":442,"x_min":18,"x_max":424,"o":"m 422 590 l 219 726 l 19 593 l 18 790 l 219 925 l 424 786 l 422 590 z "},"Œ":{"ha":1114,"x_min":19,"x_max":1094,"o":"m 407 867 l 407 868 l 1094 868 l 1026 682 l 643 682 l 643 524 l 1026 524 l 1026 342 l 643 342 l 643 189 l 1094 190 l 1028 1 l 640 1 l 640 0 l 86 0 q 49 35 67 19 q 19 81 31 50 l 19 799 q 49 842 31 829 q 86 867 67 856 l 407 867 m 256 188 l 407 188 l 407 681 l 256 681 l 256 188 z "},"@":{"ha":911,"x_min":19,"x_max":892,"o":"m 625 194 l 646 197 l 646 636 l 251 636 l 251 19 l 646 19 l 892 -121 l 883 -110 q 873 -167 879 -144 q 853 -201 867 -189 q 819 -219 840 -214 q 765 -224 797 -224 l 585 -221 l 586 -224 l 154 -221 q 56 -201 90 -222 q 22 -110 21 -179 l 19 769 q 32 787 26 776 q 49 810 38 797 q 83 840 60 824 q 147 876 106 857 l 490 878 l 490 876 l 772 878 q 829 842 811 858 q 856 811 847 825 q 867 787 864 797 q 878 769 871 776 l 879 94 l 556 94 l 556 96 l 336 92 q 265 161 264 143 l 265 386 q 350 435 267 424 l 493 435 l 494 525 l 389 525 l 388 478 l 267 493 l 265 590 q 344 621 278 629 l 561 617 q 601 590 603 594 l 622 556 l 625 194 m 494 329 l 389 331 l 389 200 l 494 200 l 494 329 z "},"{":{"ha":644,"x_min":17,"x_max":625,"o":"m 557 681 l 406 681 l 253 333 l 254 329 l 404 -44 l 556 -44 l 624 -231 l 167 -231 l 167 18 l 17 336 l 169 658 l 171 867 l 625 867 l 557 681 z "},"}":{"ha":644,"x_min":19,"x_max":628,"o":"m 19 867 l 474 867 l 475 658 l 628 336 l 478 18 l 478 -231 l 21 -231 l 89 -44 l 240 -44 l 390 329 l 392 333 l 239 681 l 88 681 l 19 867 z "},"Š":{"ha":738,"x_min":22,"x_max":715,"o":"m 22 185 l 465 186 l 467 344 l 146 344 q 22 432 43 344 q 23 479 22 454 q 24 526 24 504 l 22 526 l 22 767 q 64 844 33 821 q 146 868 94 868 l 713 868 l 713 774 q 714 767 713 768 q 713 724 714 746 q 713 682 713 703 l 271 681 l 271 526 l 590 528 q 672 504 642 528 q 714 426 703 481 q 713 420 714 424 q 713 414 713 417 l 715 414 l 715 90 q 592 3 694 3 l 413 0 l 413 -1 l 90 -1 l 22 185 m 594 1128 l 390 989 l 189 1124 l 190 1321 l 390 1188 l 593 1324 l 594 1128 z "},"Ž":{"ha":733,"x_min":19,"x_max":714,"o":"m 25 871 l 479 871 l 481 874 l 714 874 l 713 871 l 347 186 l 640 186 l 708 0 l 19 0 l 21 3 l 381 685 l 93 685 l 25 871 m 594 1128 l 390 989 l 189 1124 l 190 1321 l 390 1188 l 593 1324 l 594 1128 z "},"š":{"ha":732,"x_min":22,"x_max":715,"o":"m 22 185 l 465 186 l 467 344 l 146 344 q 22 432 43 344 q 23 479 22 454 q 24 526 24 504 l 22 526 l 22 767 q 64 844 33 821 q 146 868 94 868 l 713 868 l 713 774 q 714 767 713 768 q 713 724 714 746 q 713 682 713 703 l 271 681 l 271 526 l 590 528 q 672 504 642 528 q 714 426 703 481 q 713 420 714 424 q 713 414 713 417 l 715 414 l 715 90 q 592 3 694 3 l 413 0 l 413 -1 l 90 -1 l 22 185 m 594 1128 l 390 989 l 189 1124 l 190 1321 l 390 1188 l 593 1324 l 594 1128 z "},"œ":{"ha":1114,"x_min":19,"x_max":1094,"o":"m 407 867 l 407 868 l 1094 868 l 1026 682 l 643 682 l 643 524 l 1026 524 l 1026 342 l 643 342 l 643 189 l 1094 190 l 1028 1 l 640 1 l 640 0 l 86 0 q 49 35 67 19 q 19 81 31 50 l 19 799 q 49 842 31 829 q 86 867 67 856 l 407 867 m 256 188 l 407 188 l 407 681 l 256 681 l 256 188 z "},"ž":{"ha":733,"x_min":19,"x_max":714,"o":"m 25 871 l 479 871 l 481 874 l 714 874 l 713 871 l 347 186 l 640 186 l 708 0 l 19 0 l 21 3 l 381 685 l 93 685 l 25 871 m 594 1128 l 390 989 l 189 1124 l 190 1321 l 390 1188 l 593 1324 l 594 1128 z "},"Ÿ":{"ha":718,"x_min":17,"x_max":701,"o":"m 242 0 l 242 440 l 17 865 l 251 865 l 358 661 l 467 865 l 701 865 l 476 440 l 475 0 l 242 0 m 104 989 l 104 1164 l 338 1164 l 338 989 l 104 989 m 376 989 l 376 1164 l 610 1164 l 610 989 l 376 989 z "},"~":{"ha":857,"x_min":17,"x_max":840,"o":"m 582 353 l 781 496 l 840 310 l 497 64 l 275 374 l 76 231 l 17 417 l 360 663 l 582 353 z "},"†":{"ha":551,"x_min":17,"x_max":535,"o":"m 392 349 l 392 -261 l 157 -349 l 157 349 l 17 349 l 17 582 l 157 583 l 157 867 l 392 867 l 392 586 l 535 588 l 535 349 l 392 349 z "},"‡":{"ha":274,"x_min":17,"x_max":535,"o":"m 392 0 l 392 -261 l 157 -349 l 157 0 l 17 0 l 17 233 l 157 235 l 157 349 l 17 349 l 17 582 l 157 583 l 157 867 l 392 867 l 392 586 l 535 588 l 535 349 l 392 349 l 392 238 l 535 239 l 535 0 l 392 0 z "},"¡":{"ha":272,"x_min":19,"x_max":254,"o":"m 254 -231 l 19 -231 l 19 344 l 253 344 l 254 -231 m 253 636 l 253 461 l 19 461 l 19 636 l 253 636 z "},"¿":{"ha":740,"x_min":18,"x_max":722,"o":"m 242 36 l 242 -46 l 474 -46 l 474 111 l 242 113 l 242 340 l 474 340 l 474 247 q 542 225 514 235 q 592 208 571 215 q 628 194 613 201 q 658 182 644 188 q 656 183 657 182 q 653 183 654 183 q 692 158 674 172 q 722 111 711 143 l 722 -135 q 681 -212 711 -189 q 599 -236 650 -236 l 267 -235 l 267 -232 l 142 -233 q 60 -210 90 -233 q 18 -132 29 -186 l 18 113 l 242 36 m 661 181 q 658 182 660 181 q 660 181 660 182 q 661 181 660 181 m 475 632 l 475 457 l 242 457 l 242 632 l 475 632 z "},"˜":{"ha":588,"x_min":17,"x_max":571,"o":"m 397 797 l 531 883 l 571 771 l 340 624 l 190 810 l 57 724 l 17 836 l 249 983 l 397 797 z "},"¢":{"ha":726,"x_min":28,"x_max":715,"o":"m 715 189 l 649 0 l 500 0 l 500 -117 l 267 -117 l 267 0 l 94 0 q 57 35 75 19 q 28 81 39 50 l 28 799 q 57 842 39 829 q 94 867 75 856 l 267 867 l 267 981 l 501 981 l 501 867 l 715 867 l 647 681 l 267 678 l 267 681 l 264 681 l 264 188 l 265 188 l 265 186 l 715 189 z "},"£":{"ha":843,"x_min":18,"x_max":826,"o":"m 374 346 l 375 186 l 758 186 l 826 0 l 139 0 l 138 346 l 18 346 l 18 579 l 138 581 l 138 865 l 139 865 l 139 867 l 268 867 l 528 868 l 596 683 l 374 682 l 374 583 l 536 585 l 536 346 l 374 346 z "},"¥":{"ha":718,"x_min":17,"x_max":701,"o":"m 68 599 l 157 599 l 17 865 l 251 865 l 358 661 l 467 865 l 701 865 l 561 600 l 643 600 l 643 365 l 475 365 l 475 311 l 643 311 l 643 76 l 475 76 l 475 0 l 242 0 l 242 76 l 68 76 l 68 310 l 242 310 l 242 365 l 68 365 l 68 599 z "},"¤":{"ha":914,"x_min":18,"x_max":896,"o":"m 265 -6 l 18 42 l 107 188 q 108 460 108 326 q 107 746 108 593 l 18 893 l 265 940 l 328 833 l 592 833 l 649 929 l 896 882 l 810 739 q 810 183 808 474 q 808 181 810 182 l 889 49 l 642 1 l 576 111 l 333 111 l 265 -6 m 557 269 l 557 678 l 360 678 l 360 269 l 557 269 z "},"¦":{"ha":272,"x_min":19,"x_max":254,"o":"m 19 -231 l 19 231 l 253 231 l 253 -231 l 19 -231 m 253 410 l 19 410 l 19 867 l 254 867 l 253 410 z "},"§":{"ha":735,"x_min":19,"x_max":715,"o":"m 19 -153 l 463 -151 l 464 0 l 414 0 l 414 -1 l 92 -1 q 45 42 60 21 q 24 94 31 64 q 24 423 24 258 q 24 767 25 588 q 65 844 35 821 q 147 868 96 868 l 714 868 l 714 774 q 715 767 714 768 q 715 724 715 746 q 714 682 714 703 l 272 681 l 272 531 l 592 531 l 592 532 q 715 426 694 532 q 715 107 715 269 q 713 -247 714 -56 q 589 -335 692 -335 l 410 -337 l 410 -339 l 88 -339 l 19 -153 m 268 189 l 467 189 l 468 343 l 268 343 l 268 189 z "},"€":{"ha":706,"x_min":18,"x_max":686,"o":"m 18 618 l 150 618 l 150 799 q 179 842 161 829 q 217 867 197 856 l 686 867 l 618 681 l 386 681 l 386 618 l 600 619 l 535 451 l 386 451 l 386 413 l 600 414 l 531 246 l 386 246 l 386 188 l 686 189 l 619 0 l 217 0 q 179 35 197 19 q 150 81 161 50 l 150 247 l 18 246 l 18 413 l 150 413 l 150 453 l 18 451 l 18 618 z "},"¼":{"ha":881,"x_min":18,"x_max":863,"o":"m 725 857 l 490 860 l 83 1 l 317 0 l 725 857 m 247 472 l 125 472 l 125 785 l 18 786 l 50 872 l 247 871 l 247 472 m 756 121 l 756 0 l 861 0 l 861 82 l 863 86 l 861 86 l 861 174 l 861 174 l 861 392 l 863 394 l 861 394 l 861 394 l 756 394 l 756 203 l 658 204 l 658 394 l 553 394 l 553 121 l 756 121 z "},"¹":{"ha":265,"x_min":17,"x_max":246,"o":"m 246 469 l 124 469 l 124 782 l 17 783 l 49 869 l 246 868 l 246 469 z "},"½":{"ha":876,"x_min":18,"x_max":858,"o":"m 725 857 l 490 860 l 83 1 l 317 0 l 725 857 m 247 472 l 125 472 l 125 785 l 18 786 l 50 872 l 247 871 l 247 472 m 557 169 l 557 39 q 611 -1 565 -1 l 857 -1 l 857 76 l 658 76 l 658 78 l 658 169 l 790 169 q 804 169 796 165 l 858 169 l 858 233 l 858 236 l 858 253 l 857 253 l 857 349 q 803 394 849 394 l 557 393 l 557 310 l 704 310 l 749 310 l 749 253 l 611 253 q 557 207 567 253 l 557 169 z "},"¾":{"ha":951,"x_min":18,"x_max":933,"o":"m 388 0 l 154 1 l 561 860 l 796 857 l 388 0 m 624 121 l 624 394 l 729 394 l 729 204 l 826 203 l 826 394 l 932 394 l 933 394 l 932 392 l 932 174 l 932 86 l 933 86 l 932 82 l 932 0 l 826 0 l 826 121 l 624 121 m 149 783 l 39 783 l 39 867 l 38 867 q 35 868 35 867 l 39 868 l 39 867 l 149 867 l 149 868 l 293 869 q 347 821 339 869 l 347 708 q 335 687 343 693 q 317 675 326 681 l 317 661 q 332 656 326 661 q 347 642 338 651 l 347 508 q 293 467 339 467 l 39 467 l 39 547 l 239 547 l 239 640 l 149 640 l 149 708 l 239 708 l 239 782 l 149 782 l 149 783 m 18 467 l 25 467 l 39 467 l 18 467 z "},"²":{"ha":340,"x_min":19,"x_max":321,"o":"m 19 685 q 74 731 29 731 l 211 731 l 211 788 l 167 788 l 19 788 l 19 871 l 265 872 q 319 826 311 872 l 319 731 l 321 731 l 321 714 l 321 711 l 321 647 l 267 647 q 253 647 258 643 l 121 647 l 121 556 l 121 554 l 319 554 l 319 476 l 74 476 q 19 517 28 476 l 19 647 l 19 685 z "},"³":{"ha":368,"x_min":19,"x_max":349,"o":"m 150 783 l 40 783 l 40 867 l 39 867 q 36 868 36 867 l 40 868 l 40 867 l 150 867 l 150 868 l 294 869 q 349 821 340 869 l 349 708 q 336 687 344 693 q 318 675 328 681 l 318 661 q 333 656 328 661 q 349 642 339 651 l 349 508 q 294 467 340 467 l 40 467 l 40 547 l 240 547 l 240 640 l 150 640 l 150 708 l 240 708 l 240 782 l 150 782 l 150 783 m 19 467 l 26 467 l 40 467 l 19 467 z "},"ª":{"ha":399,"x_min":18,"x_max":381,"o":"m 18 467 l 150 865 l 256 865 l 381 467 l 178 467 l 178 551 l 256 551 l 203 731 l 117 467 l 18 467 z "},"°":{"ha":376,"x_min":19,"x_max":357,"o":"m 79 522 q 19 557 29 522 l 19 832 q 79 872 29 872 l 296 872 q 357 832 347 872 q 357 557 356 700 q 296 522 347 522 l 79 522 m 140 599 l 235 599 l 235 797 l 140 797 l 140 599 z "},"º":{"ha":379,"x_min":19,"x_max":360,"o":"m 79 446 q 19 488 29 446 l 19 824 q 79 872 29 872 l 299 872 q 360 824 350 872 q 360 488 358 664 q 299 446 349 446 l 79 446 m 142 539 l 236 539 l 236 781 l 142 781 l 142 539 z "},"¬":{"ha":613,"x_min":17,"x_max":593,"o":"m 17 407 l 17 642 l 593 640 l 593 344 l 407 285 l 407 406 l 17 407 z "},"­":{"ha":383,"x_min":19,"x_max":364,"o":"m 19 175 l 19 410 l 364 414 l 364 175 l 19 175 z "},"±":{"ha":556,"x_min":18,"x_max":538,"o":"m 19 0 l 19 233 l 161 235 l 161 317 l 18 318 l 18 551 l 161 551 l 161 694 l 396 694 l 396 551 l 538 551 l 538 317 l 394 317 l 394 238 l 538 239 l 538 0 l 19 0 z "},"µ":{"ha":726,"x_min":19,"x_max":708,"o":"m 21 867 l 256 867 l 258 182 l 468 182 l 468 863 l 472 863 l 472 867 l 707 867 l 708 0 l 256 0 l 256 -78 l 19 -162 l 21 867 z "},"¶":{"ha":1088,"x_min":19,"x_max":1069,"o":"m 19 863 l 247 863 l 247 869 l 1069 869 l 1001 683 l 944 682 l 943 -231 l 710 -231 l 710 681 l 482 678 l 481 -228 l 247 -228 l 247 -4 l 19 -4 l 19 863 z "},"·":{"ha":272,"x_min":19,"x_max":253,"o":"m 19 351 l 19 526 l 253 526 l 253 351 l 19 351 z "},"´":{"ha":353,"x_min":18,"x_max":335,"o":"m 335 925 l 254 754 l 18 754 l 100 928 l 335 925 z "},"¸":{"ha":393,"x_min":18,"x_max":374,"o":"m 139 0 l 374 0 l 372 -222 l 76 -221 l 18 -33 l 139 -35 l 139 0 z "},"À":{"ha":921,"x_min":26,"x_max":894,"o":"m 26 1 l 343 874 l 596 874 l 894 1 l 406 1 l 406 186 l 596 186 l 469 578 l 263 1 l 26 1 m 503 1163 l 585 989 l 349 989 l 268 1160 l 503 1163 z "},"Á":{"ha":921,"x_min":26,"x_max":894,"o":"m 26 1 l 343 874 l 596 874 l 894 1 l 406 1 l 406 186 l 596 186 l 469 578 l 263 1 l 26 1 m 672 1160 l 592 989 l 356 989 l 438 1163 l 672 1160 z "},"Â":{"ha":921,"x_min":26,"x_max":894,"o":"m 26 1 l 343 874 l 596 874 l 894 1 l 406 1 l 406 186 l 596 186 l 469 578 l 263 1 l 26 1 m 672 978 l 469 1114 l 269 981 l 268 1178 l 469 1313 l 674 1174 l 672 978 z "},"Ã":{"ha":921,"x_min":26,"x_max":894,"o":"m 26 1 l 343 874 l 596 874 l 894 1 l 406 1 l 406 186 l 596 186 l 469 578 l 263 1 l 26 1 m 576 1114 l 710 1200 l 750 1088 l 519 940 l 369 1126 l 236 1040 l 196 1153 l 428 1300 l 576 1114 z "},"Ä":{"ha":921,"x_min":26,"x_max":894,"o":"m 26 1 l 343 874 l 596 874 l 894 1 l 406 1 l 406 186 l 596 186 l 469 578 l 263 1 l 26 1 m 221 986 l 221 1161 l 454 1161 l 454 986 l 221 986 m 493 986 l 493 1161 l 726 1161 l 726 986 l 493 986 z "},"Å":{"ha":921,"x_min":26,"x_max":894,"o":"m 342 872 q 296 907 304 876 l 296 1182 q 356 1222 306 1222 l 572 1222 q 633 1182 624 1222 q 633 907 632 1050 q 596 874 626 883 l 894 1 l 406 1 l 406 186 l 596 186 l 469 578 l 263 1 l 26 1 l 342 872 m 417 949 l 511 949 l 511 1147 l 417 1147 l 417 949 z "},"Æ":{"ha":1299,"x_min":18,"x_max":1279,"o":"m 1279 867 l 1211 681 l 828 681 l 828 522 l 1211 522 l 1211 340 l 828 340 l 828 188 l 1279 189 l 1213 0 l 397 1 l 397 186 l 588 186 l 461 578 l 254 1 l 18 1 l 335 874 l 1279 867 z "},"à":{"ha":903,"x_min":26,"x_max":894,"o":"m 26 1 l 343 874 l 596 874 l 894 1 l 406 1 l 406 186 l 596 186 l 469 578 l 263 1 l 26 1 m 503 1163 l 585 989 l 349 989 l 268 1160 l 503 1163 z "},"á":{"ha":903,"x_min":26,"x_max":894,"o":"m 26 1 l 343 874 l 596 874 l 894 1 l 406 1 l 406 186 l 596 186 l 469 578 l 263 1 l 26 1 m 672 1160 l 592 989 l 356 989 l 438 1163 l 672 1160 z "},"â":{"ha":903,"x_min":26,"x_max":894,"o":"m 26 1 l 343 874 l 596 874 l 894 1 l 406 1 l 406 186 l 596 186 l 469 578 l 263 1 l 26 1 m 672 978 l 469 1114 l 269 981 l 268 1178 l 469 1313 l 674 1174 l 672 978 z "},"ã":{"ha":903,"x_min":26,"x_max":894,"o":"m 26 1 l 343 874 l 596 874 l 894 1 l 406 1 l 406 186 l 596 186 l 469 578 l 263 1 l 26 1 m 576 1114 l 710 1200 l 750 1088 l 519 940 l 369 1126 l 236 1040 l 196 1153 l 428 1300 l 576 1114 z "},"ä":{"ha":903,"x_min":26,"x_max":894,"o":"m 26 1 l 343 874 l 596 874 l 894 1 l 406 1 l 406 186 l 596 186 l 469 578 l 263 1 l 26 1 m 221 986 l 221 1161 l 454 1161 l 454 986 l 221 986 m 493 986 l 493 1161 l 726 1161 l 726 986 l 493 986 z "},"æ":{"ha":1299,"x_min":18,"x_max":1279,"o":"m 1279 867 l 1211 681 l 828 681 l 828 522 l 1211 522 l 1211 340 l 828 340 l 828 188 l 1279 189 l 1213 0 l 397 1 l 397 186 l 588 186 l 461 578 l 254 1 l 18 1 l 335 874 l 1279 867 z "},"Ç":{"ha":738,"x_min":28,"x_max":715,"o":"m 256 0 l 94 0 q 57 35 75 19 q 28 81 39 50 l 28 799 q 57 842 39 829 q 94 867 75 856 l 715 867 l 647 681 l 264 681 l 264 188 l 715 189 l 649 0 l 490 0 l 489 -222 l 193 -221 l 135 -33 l 256 -35 l 256 0 z "},"È":{"ha":742,"x_min":28,"x_max":715,"o":"m 28 867 l 715 867 l 647 681 l 264 681 l 264 522 l 647 522 l 647 340 l 264 340 l 264 188 l 715 189 l 649 0 l 28 0 l 28 867 m 431 1163 l 513 989 l 276 989 l 196 1160 l 431 1163 z "},"É":{"ha":742,"x_min":28,"x_max":715,"o":"m 28 0 l 649 0 l 715 189 l 264 188 l 264 340 l 647 340 l 647 522 l 264 522 l 264 681 l 647 681 l 715 867 l 28 867 l 28 0 m 546 1160 l 465 989 l 229 989 l 311 1163 l 546 1160 z "},"Ê":{"ha":742,"x_min":28,"x_max":715,"o":"m 28 0 l 649 0 l 715 189 l 264 188 l 264 340 l 647 340 l 647 522 l 264 522 l 264 681 l 647 681 l 715 867 l 28 867 l 28 0 m 569 974 l 367 1110 l 167 976 l 165 1174 l 367 1308 l 571 1169 l 569 974 z "},"Ë":{"ha":742,"x_min":28,"x_max":715,"o":"m 28 867 l 715 867 l 647 681 l 264 681 l 264 522 l 647 522 l 647 340 l 264 340 l 264 188 l 715 189 l 649 0 l 28 0 l 28 867 m 119 986 l 119 1161 l 353 1161 l 353 986 l 119 986 m 392 986 l 392 1161 l 625 1161 l 625 986 l 392 986 z "},"è":{"ha":726,"x_min":28,"x_max":715,"o":"m 28 867 l 715 867 l 647 681 l 264 681 l 264 522 l 647 522 l 647 340 l 264 340 l 264 188 l 715 189 l 649 0 l 28 0 l 28 867 m 431 1163 l 513 989 l 276 989 l 196 1160 l 431 1163 z "},"é":{"ha":726,"x_min":28,"x_max":715,"o":"m 28 0 l 649 0 l 715 189 l 264 188 l 264 340 l 647 340 l 647 522 l 264 522 l 264 681 l 647 681 l 715 867 l 28 867 l 28 0 m 546 1160 l 465 989 l 229 989 l 311 1163 l 546 1160 z "},"ê":{"ha":726,"x_min":28,"x_max":715,"o":"m 28 0 l 649 0 l 715 189 l 264 188 l 264 340 l 647 340 l 647 522 l 264 522 l 264 681 l 647 681 l 715 867 l 28 867 l 28 0 m 569 974 l 367 1110 l 167 976 l 165 1174 l 367 1308 l 571 1169 l 569 974 z "},"ë":{"ha":726,"x_min":28,"x_max":715,"o":"m 28 867 l 715 867 l 647 681 l 264 681 l 264 522 l 647 522 l 647 340 l 264 340 l 264 188 l 715 189 l 649 0 l 28 0 l 28 867 m 119 986 l 119 1161 l 353 1161 l 353 986 l 119 986 m 392 986 l 392 1161 l 625 1161 l 625 986 l 392 986 z "},"ç":{"ha":717,"x_min":28,"x_max":715,"o":"m 256 0 l 94 0 q 57 35 75 19 q 28 81 39 50 l 28 799 q 57 842 39 829 q 94 867 75 856 l 715 867 l 647 681 l 264 681 l 264 188 l 715 189 l 649 0 l 490 0 l 489 -222 l 193 -221 l 135 -33 l 256 -35 l 256 0 z "},"Ì":{"ha":288,"x_min":-54,"x_max":263,"o":"m 260 0 l 26 0 l 26 867 l 261 867 l 260 0 m 181 1163 l 263 989 l 26 989 l -54 1160 l 181 1163 z "},"Í":{"ha":288,"x_min":26,"x_max":346,"o":"m 346 1160 l 265 989 l 29 989 l 111 1163 l 346 1160 m 261 867 l 26 867 l 26 0 l 260 0 l 261 867 z "},"Î":{"ha":288,"x_min":-57,"x_max":349,"o":"m 261 867 l 26 867 l 26 0 l 260 0 l 261 867 m 347 978 l 144 1114 l -56 981 l -57 1178 l 144 1313 l 349 1174 l 347 978 z "},"Ï":{"ha":288,"x_min":-112,"x_max":393,"o":"m 260 0 l 26 0 l 26 867 l 261 867 l 260 0 m -112 986 l -112 1161 l 121 1161 l 121 986 l -112 986 m 160 986 l 160 1161 l 393 1161 l 393 986 l 160 986 z "},"ì":{"ha":274,"x_min":-54,"x_max":263,"o":"m 260 0 l 26 0 l 26 867 l 261 867 l 260 0 m 181 1163 l 263 989 l 26 989 l -54 1160 l 181 1163 z "},"í":{"ha":274,"x_min":26,"x_max":346,"o":"m 346 1160 l 265 989 l 29 989 l 111 1163 l 346 1160 m 261 867 l 26 867 l 26 0 l 260 0 l 261 867 z "},"î":{"ha":274,"x_min":-57,"x_max":349,"o":"m 261 867 l 26 867 l 26 0 l 260 0 l 261 867 m 347 978 l 144 1114 l -56 981 l -57 1178 l 144 1313 l 349 1174 l 347 978 z "},"ï":{"ha":274,"x_min":-112,"x_max":393,"o":"m 260 0 l 26 0 l 26 867 l 261 867 l 260 0 m -112 986 l -112 1161 l 121 1161 l 121 986 l -112 986 m 160 986 l 160 1161 l 393 1161 l 393 986 l 160 986 z "},"Ð":{"ha":879,"x_min":18,"x_max":860,"o":"m 169 -1 l 169 311 l 18 311 l 18 544 l 169 546 l 169 867 l 736 868 q 818 844 788 868 q 860 767 849 821 q 858 435 858 601 q 860 86 858 268 q 736 -1 839 -1 l 169 -1 m 611 189 l 611 681 l 404 681 l 403 549 l 536 550 l 536 311 l 403 311 l 403 189 l 611 189 z "},"Ñ":{"ha":735,"x_min":24,"x_max":711,"o":"m 710 0 l 475 0 l 475 4 l 471 4 l 471 685 l 261 685 l 258 0 l 24 0 l 24 867 l 711 867 l 710 0 m 471 1114 l 604 1200 l 644 1088 l 414 940 l 264 1126 l 131 1040 l 90 1153 l 322 1300 l 471 1114 z "},"Ò":{"ha":739,"x_min":24,"x_max":715,"o":"m 147 -1 q 24 86 44 -1 q 25 435 25 268 q 24 767 25 601 q 65 844 35 821 q 147 868 96 868 l 592 868 q 674 844 643 868 q 715 767 704 821 q 714 435 714 601 q 715 86 714 268 q 592 -1 694 -1 l 147 -1 m 272 189 l 467 189 l 467 681 l 272 681 l 272 189 m 431 1163 l 513 989 l 276 989 l 196 1160 l 431 1163 z "},"Ó":{"ha":739,"x_min":24,"x_max":715,"o":"m 147 -1 l 592 -1 q 715 86 694 -1 q 714 435 714 268 q 715 767 714 601 q 674 844 704 821 q 592 868 643 868 l 147 868 q 65 844 96 868 q 24 767 35 821 q 25 435 25 601 q 24 86 25 268 q 147 -1 44 -1 m 272 681 l 467 681 l 467 189 l 272 189 l 272 681 m 546 1160 l 465 989 l 229 989 l 311 1163 l 546 1160 z "},"Ô":{"ha":739,"x_min":24,"x_max":715,"o":"m 147 -1 l 592 -1 q 715 86 694 -1 q 714 435 714 268 q 715 767 714 601 q 674 844 704 821 q 592 868 643 868 l 147 868 q 65 844 96 868 q 24 767 35 821 q 25 435 25 601 q 24 86 25 268 q 147 -1 44 -1 m 272 681 l 467 681 l 467 189 l 272 189 l 272 681 m 569 974 l 367 1110 l 167 976 l 165 1174 l 367 1308 l 571 1169 l 569 974 z "},"Õ":{"ha":739,"x_min":24,"x_max":715,"o":"m 147 -1 q 24 86 44 -1 q 25 435 25 268 q 24 767 25 601 q 65 844 35 821 q 147 868 96 868 l 592 868 q 674 844 643 868 q 715 767 704 821 q 714 435 714 601 q 715 86 714 268 q 592 -1 694 -1 l 147 -1 m 272 189 l 467 189 l 467 681 l 272 681 l 272 189 m 478 1114 l 611 1200 l 651 1088 l 421 940 l 271 1126 l 138 1040 l 97 1153 l 329 1300 l 478 1114 z "},"Ö":{"ha":739,"x_min":24,"x_max":715,"o":"m 147 -1 q 24 86 44 -1 q 25 435 25 268 q 24 767 25 601 q 65 844 35 821 q 147 868 96 868 l 592 868 q 674 844 643 868 q 715 767 704 821 q 714 435 714 601 q 715 86 714 268 q 592 -1 694 -1 l 147 -1 m 272 189 l 467 189 l 467 681 l 272 681 l 272 189 m 119 986 l 119 1161 l 353 1161 l 353 986 l 119 986 m 392 986 l 392 1161 l 625 1161 l 625 986 l 392 986 z "},"ò":{"ha":731,"x_min":24,"x_max":715,"o":"m 147 -1 q 24 86 44 -1 q 25 435 25 268 q 24 767 25 601 q 65 844 35 821 q 147 868 96 868 l 592 868 q 674 844 643 868 q 715 767 704 821 q 714 435 714 601 q 715 86 714 268 q 592 -1 694 -1 l 147 -1 m 272 189 l 467 189 l 467 681 l 272 681 l 272 189 m 431 1163 l 513 989 l 276 989 l 196 1160 l 431 1163 z "},"ó":{"ha":731,"x_min":24,"x_max":715,"o":"m 147 -1 l 592 -1 q 715 86 694 -1 q 714 435 714 268 q 715 767 714 601 q 674 844 704 821 q 592 868 643 868 l 147 868 q 65 844 96 868 q 24 767 35 821 q 25 435 25 601 q 24 86 25 268 q 147 -1 44 -1 m 272 681 l 467 681 l 467 189 l 272 189 l 272 681 m 546 1160 l 465 989 l 229 989 l 311 1163 l 546 1160 z "},"ô":{"ha":731,"x_min":24,"x_max":715,"o":"m 147 -1 l 592 -1 q 715 86 694 -1 q 714 435 714 268 q 715 767 714 601 q 674 844 704 821 q 592 868 643 868 l 147 868 q 65 844 96 868 q 24 767 35 821 q 25 435 25 601 q 24 86 25 268 q 147 -1 44 -1 m 272 681 l 467 681 l 467 189 l 272 189 l 272 681 m 569 974 l 367 1110 l 167 976 l 165 1174 l 367 1308 l 571 1169 l 569 974 z "},"õ":{"ha":731,"x_min":24,"x_max":715,"o":"m 147 -1 q 24 86 44 -1 q 25 435 25 268 q 24 767 25 601 q 65 844 35 821 q 147 868 96 868 l 592 868 q 674 844 643 868 q 715 767 704 821 q 714 435 714 601 q 715 86 714 268 q 592 -1 694 -1 l 147 -1 m 272 189 l 467 189 l 467 681 l 272 681 l 272 189 m 478 1114 l 611 1200 l 651 1088 l 421 940 l 271 1126 l 138 1040 l 97 1153 l 329 1300 l 478 1114 z "},"ö":{"ha":731,"x_min":24,"x_max":715,"o":"m 147 -1 q 24 86 44 -1 q 25 435 25 268 q 24 767 25 601 q 65 844 35 821 q 147 868 96 868 l 592 868 q 674 844 643 868 q 715 767 704 821 q 714 435 714 601 q 715 86 714 268 q 592 -1 694 -1 l 147 -1 m 272 189 l 467 189 l 467 681 l 272 681 l 272 189 m 119 986 l 119 1161 l 353 1161 l 353 986 l 119 986 m 392 986 l 392 1161 l 625 1161 l 625 986 l 392 986 z "},"ñ":{"ha":726,"x_min":24,"x_max":711,"o":"m 710 0 l 475 0 l 475 4 l 471 4 l 471 685 l 261 685 l 258 0 l 24 0 l 24 867 l 711 867 l 710 0 m 471 1114 l 604 1200 l 644 1088 l 414 940 l 264 1126 l 131 1040 l 90 1153 l 322 1300 l 471 1114 z "},"Ù":{"ha":729,"x_min":19,"x_max":707,"o":"m 707 0 l 19 0 l 19 867 l 254 867 l 257 182 l 467 182 l 467 863 l 471 863 l 471 867 l 706 867 l 707 0 m 431 1163 l 513 989 l 276 989 l 196 1160 l 431 1163 z "},"Ú":{"ha":729,"x_min":21,"x_max":708,"o":"m 546 1160 l 465 989 l 229 989 l 311 1163 l 546 1160 m 708 0 l 21 0 l 21 867 l 256 867 l 258 182 l 468 182 l 468 863 l 472 863 l 472 867 l 707 867 l 708 0 z "},"Û":{"ha":729,"x_min":21,"x_max":708,"o":"m 708 0 l 21 0 l 21 867 l 256 867 l 258 182 l 468 182 l 468 863 l 472 863 l 472 867 l 707 867 l 708 0 m 569 974 l 367 1110 l 167 976 l 165 1174 l 367 1308 l 571 1169 l 569 974 z "},"Ü":{"ha":729,"x_min":21,"x_max":708,"o":"m 708 0 l 21 0 l 21 867 l 256 867 l 258 182 l 468 182 l 468 863 l 472 863 l 472 867 l 707 867 l 708 0 m 119 986 l 119 1161 l 353 1161 l 353 986 l 119 986 m 392 986 l 392 1161 l 625 1161 l 625 986 l 392 986 z "},"ù":{"ha":726,"x_min":19,"x_max":707,"o":"m 707 0 l 19 0 l 19 867 l 254 867 l 257 182 l 467 182 l 467 863 l 471 863 l 471 867 l 706 867 l 707 0 m 431 1163 l 513 989 l 276 989 l 196 1160 l 431 1163 z "},"ú":{"ha":726,"x_min":21,"x_max":708,"o":"m 546 1160 l 465 989 l 229 989 l 311 1163 l 546 1160 m 708 0 l 21 0 l 21 867 l 256 867 l 258 182 l 468 182 l 468 863 l 472 863 l 472 867 l 707 867 l 708 0 z "},"û":{"ha":726,"x_min":21,"x_max":708,"o":"m 708 0 l 21 0 l 21 867 l 256 867 l 258 182 l 468 182 l 468 863 l 472 863 l 472 867 l 707 867 l 708 0 m 569 974 l 367 1110 l 167 976 l 165 1174 l 367 1308 l 571 1169 l 569 974 z "},"ü":{"ha":726,"x_min":21,"x_max":708,"o":"m 708 0 l 21 0 l 21 867 l 256 867 l 258 182 l 468 182 l 468 863 l 472 863 l 472 867 l 707 867 l 708 0 m 119 986 l 119 1161 l 353 1161 l 353 986 l 119 986 m 392 986 l 392 1161 l 625 1161 l 625 986 l 392 986 z "},"Ý":{"ha":718,"x_min":17,"x_max":701,"o":"m 475 0 l 476 440 l 701 865 l 467 865 l 358 661 l 251 865 l 17 865 l 242 440 l 242 0 l 475 0 m 546 1160 l 465 989 l 229 989 l 311 1163 l 546 1160 z "},"Ø":{"ha":739,"x_min":-8,"x_max":744,"o":"m 679 835 q 711 767 703 811 q 710 435 710 601 q 711 86 710 268 q 588 -1 690 -1 l 283 -1 l 225 -124 l -8 -121 l 60 21 q 19 86 29 43 q 21 435 21 268 q 19 767 21 601 q 61 844 31 821 q 143 868 92 868 l 460 868 l 511 975 l 744 972 l 679 835 m 268 189 l 463 189 l 463 681 l 268 681 l 268 189 z "},"ø":{"ha":731,"x_min":-8,"x_max":744,"o":"m 679 835 q 711 767 703 811 q 710 435 710 601 q 711 86 710 268 q 588 -1 690 -1 l 283 -1 l 225 -124 l -8 -121 l 60 21 q 19 86 29 43 q 21 435 21 268 q 19 767 21 601 q 61 844 31 821 q 143 868 92 868 l 460 868 l 511 975 l 744 972 l 679 835 m 268 189 l 463 189 l 463 681 l 268 681 l 268 189 z "},"ý":{"ha":718,"x_min":17,"x_max":701,"o":"m 475 0 l 476 440 l 701 865 l 467 865 l 358 661 l 251 865 l 17 865 l 242 440 l 242 0 l 475 0 m 546 1160 l 465 989 l 229 989 l 311 1163 l 546 1160 z "},"ÿ":{"ha":718,"x_min":17,"x_max":701,"o":"m 242 0 l 242 440 l 17 865 l 251 865 l 358 661 l 467 865 l 701 865 l 476 440 l 475 0 l 242 0 m 119 986 l 119 1161 l 353 1161 l 353 986 l 119 986 m 392 986 l 392 1161 l 625 1161 l 625 986 l 392 986 z "},"Þ":{"ha":725,"x_min":19,"x_max":710,"o":"m 254 726 l 586 728 q 668 704 638 728 q 710 626 699 681 q 710 485 710 538 q 710 404 710 433 q 710 362 710 375 q 710 339 710 349 q 677 269 700 293 q 617 239 654 246 l 617 235 l 254 235 l 254 32 l 256 32 l 256 -142 l 19 -142 l 19 867 l 254 867 l 254 726 m 461 381 l 461 540 l 254 540 l 254 381 l 461 381 z "},"ß":{"ha":729,"x_min":19,"x_max":710,"o":"m 19 -1 l 19 867 l 586 868 q 668 844 638 868 q 710 767 699 821 l 710 521 q 680 474 699 489 q 640 449 661 460 l 640 418 q 675 408 661 418 q 710 375 689 397 l 710 86 q 586 -1 689 -1 l 396 0 l 396 172 l 461 172 l 461 375 l 396 375 l 396 521 l 461 521 l 461 681 l 254 681 l 256 0 l 19 -1 z "},"þ":{"ha":725,"x_min":19,"x_max":710,"o":"m 254 496 l 586 497 q 668 474 638 497 q 710 396 699 450 q 710 255 710 307 q 710 174 710 203 q 710 131 710 144 q 710 108 710 118 q 677 39 700 63 q 617 8 654 15 l 617 4 l 254 4 l 254 -199 l 256 -199 l 256 -224 l 19 -224 l 22 864 l 249 864 l 254 496 m 461 150 l 461 310 l 254 310 l 254 150 l 461 150 z "},"ð":{"ha":736,"x_min":24,"x_max":717,"o":"m 224 -4 l 225 -1 l 147 -1 q 65 22 96 -1 q 24 100 35 46 l 24 340 l 25 340 q 24 388 25 363 q 24 435 24 413 q 147 522 44 522 l 468 522 l 467 681 l 461 681 l 461 682 l 461 681 l 368 532 l 172 658 l 185 678 l 131 678 l 64 868 l 300 868 l 401 1019 l 594 892 l 576 864 l 593 864 q 717 776 696 864 l 717 101 q 675 24 706 47 q 593 0 644 0 l 224 -4 m 272 340 l 272 186 l 469 185 l 469 339 l 272 340 m 576 864 l 561 864 l 576 864 m 189 685 l 185 678 l 189 678 l 189 685 z "},"×":{"ha":549,"x_min":19,"x_max":529,"o":"m 290 690 l 525 690 l 392 438 l 529 178 l 293 178 l 274 215 l 253 178 l 19 178 l 157 438 l 22 690 l 257 690 l 274 658 l 290 690 z "},"÷":{"ha":614,"x_min":17,"x_max":597,"o":"m 17 229 l 17 463 l 597 463 l 597 232 l 17 229 m 190 0 l 190 175 l 424 175 l 424 0 l 190 0 m 190 518 l 190 692 l 424 692 l 424 518 l 190 518 z "},"™":{"ha":940,"x_min":18,"x_max":921,"o":"m 18 869 l 350 869 l 350 774 l 240 774 l 239 413 l 126 413 l 126 774 l 18 774 l 18 869 m 701 413 l 588 413 l 588 415 l 586 415 l 586 772 l 485 772 l 483 413 l 371 413 l 371 868 l 918 869 l 919 871 l 921 871 l 919 868 l 918 413 l 806 413 l 806 756 l 806 756 l 806 772 l 703 772 l 701 413 z "},"A":{"ha":921,"x_min":26,"x_max":894,"o":"m 26 1 l 343 874 l 596 874 l 894 1 l 406 1 l 406 186 l 596 186 l 469 578 l 263 1 l 26 1 l 26 1 z "},"B":{"ha":749,"x_min":29,"x_max":719,"o":"m 29 -1 l 29 867 l 596 868 q 678 844 647 868 q 719 767 708 821 l 719 521 q 690 474 708 489 q 650 449 671 460 l 650 418 q 685 408 671 418 q 719 375 699 397 l 719 86 q 596 -1 699 -1 l 29 -1 m 471 521 l 471 681 l 264 681 l 264 521 l 471 521 m 471 172 l 471 375 l 264 375 l 264 172 l 471 172 z "},"C":{"ha":742,"x_min":28,"x_max":715,"o":"m 715 867 l 647 681 l 264 681 l 264 188 l 715 189 l 649 0 l 94 0 q 57 35 75 19 q 28 81 39 50 l 28 799 q 57 842 39 829 q 94 867 75 856 l 715 867 z "},"E":{"ha":742,"x_min":28,"x_max":715,"o":"m 28 867 l 715 867 l 647 681 l 264 681 l 264 522 l 647 522 l 647 340 l 264 340 l 264 188 l 715 189 l 649 0 l 28 0 l 28 867 z "},"å":{"ha":903,"x_min":26,"x_max":894,"o":"m 342 872 q 296 907 304 876 l 296 1182 q 356 1222 306 1222 l 572 1222 q 633 1182 624 1222 q 633 907 632 1050 q 596 874 626 883 l 894 1 l 406 1 l 406 186 l 596 186 l 469 578 l 263 1 l 26 1 l 342 872 m 417 949 l 511 949 l 511 1147 l 417 1147 l 417 949 z "},"%":{"ha":983,"x_min":18,"x_max":965,"o":"m 399 0 l 165 1 l 572 860 l 807 857 l 399 0 m 78 446 q 18 488 28 446 l 18 824 q 78 872 28 872 l 297 872 q 358 824 349 872 q 358 488 357 664 q 297 446 347 446 l 78 446 m 140 539 l 235 539 l 235 781 l 140 781 l 140 539 m 685 -4 q 625 38 635 -4 l 625 374 q 685 422 635 422 l 904 422 q 965 374 956 422 q 965 38 964 214 q 904 -4 954 -4 l 685 -4 m 747 89 l 842 89 l 842 331 l 747 331 l 747 89 z "},"©":{"ha":901,"x_min":19,"x_max":882,"o":"m 879 94 q 847 15 871 35 q 764 -4 824 -4 l 583 -1 l 585 -4 l 153 -1 q 54 19 89 -3 q 21 110 19 40 l 21 769 q 33 787 28 776 q 50 810 39 797 q 84 840 61 824 q 149 876 107 857 l 492 878 l 492 876 l 774 878 q 831 842 813 858 q 857 811 849 825 q 869 787 865 797 q 879 769 872 776 l 881 104 q 881 106 881 106 q 881 104 882 107 l 879 94 m 644 239 l 649 236 l 647 636 l 253 636 l 250 239 l 644 239 m 588 586 l 558 521 l 401 521 l 401 349 l 588 349 l 560 283 l 332 283 q 316 295 324 290 q 304 311 308 300 l 304 563 q 316 578 308 574 q 332 586 324 582 l 588 586 z "},"®":{"ha":900,"x_min":19,"x_max":881,"o":"m 879 94 q 847 15 871 35 q 764 -4 824 -4 l 583 -1 l 585 -4 l 153 -1 q 54 19 89 -3 q 21 110 19 40 l 21 769 q 33 787 28 776 q 50 810 39 797 q 84 840 61 824 q 149 876 107 857 l 492 878 l 492 876 l 774 878 q 831 842 813 858 q 857 811 849 825 q 869 787 865 797 q 879 769 872 776 l 881 104 l 879 94 m 644 239 l 649 236 l 647 636 l 253 636 l 250 239 l 644 239 m 407 293 l 307 293 l 307 432 l 307 433 l 307 583 l 546 583 q 599 550 590 583 q 599 503 599 521 q 599 475 599 485 q 599 461 599 465 q 599 454 599 457 q 558 419 590 424 l 521 419 l 597 292 l 496 292 l 421 418 l 421 467 l 494 467 l 494 521 l 403 521 l 407 293 z "}}}
